<?xml version="1.0" encoding="UTF-8"?>
<svg version="1.1" xmlns="http://www.w3.org/2000/svg" width="50" height="50">
<path d="M0 0 C5.46185727 2.83716614 10.82235739 8.54519718 12.76953125 14.38671875 C12.83923177 16.78162861 12.85401128 19.17839566 12.83203125 21.57421875 C12.82300781 22.84652344 12.81398437 24.11882813 12.8046875 25.4296875 C12.79308594 26.40550781 12.78148437 27.38132812 12.76953125 28.38671875 C11.77953125 28.38671875 10.78953125 28.38671875 9.76953125 28.38671875 C9.76953125 26.40671875 9.76953125 24.42671875 9.76953125 22.38671875 C8.82078125 22.42796875 7.87203125 22.46921875 6.89453125 22.51171875 C3.76953125 22.38671875 3.76953125 22.38671875 1.76953125 20.38671875 C1.1976819 17.39799665 1.02988503 14.42417949 0.76953125 11.38671875 C-2.20046875 11.38671875 -5.17046875 11.38671875 -8.23046875 11.38671875 C-8.23046875 14.35671875 -8.23046875 17.32671875 -8.23046875 20.38671875 C-6.58046875 20.38671875 -4.93046875 20.38671875 -3.23046875 20.38671875 C-3.23046875 21.04671875 -3.23046875 21.70671875 -3.23046875 22.38671875 C-4.88046875 22.38671875 -6.53046875 22.38671875 -8.23046875 22.38671875 C-8.23046875 25.35671875 -8.23046875 28.32671875 -8.23046875 31.38671875 C-6.58046875 31.38671875 -4.93046875 31.38671875 -3.23046875 31.38671875 C-3.23046875 32.04671875 -3.23046875 32.70671875 -3.23046875 33.38671875 C-4.88046875 33.38671875 -6.53046875 33.38671875 -8.23046875 33.38671875 C-8.23046875 35.69671875 -8.23046875 38.00671875 -8.23046875 40.38671875 C-6.58046875 39.72671875 -4.93046875 39.06671875 -3.23046875 38.38671875 C-3.23046875 40.03671875 -3.23046875 41.68671875 -3.23046875 43.38671875 C-17.25119152 44.14573532 -17.25119152 44.14573532 -23.23046875 39.38671875 C-28.73147972 33.87291474 -31.51905846 29.66153978 -31.66796875 21.69921875 C-31.55833143 15.10727502 -30.54329086 10.45240258 -26.23046875 5.38671875 C-18.97414469 -1.20272213 -9.43600915 -2.59448938 0 0 Z M-14.79296875 4.76171875 C-17.21705779 7.12581453 -17.21705779 7.12581453 -18.23046875 9.38671875 C-15.59046875 9.38671875 -12.95046875 9.38671875 -10.23046875 9.38671875 C-10.23046875 7.07671875 -10.23046875 4.76671875 -10.23046875 2.38671875 C-12.56830135 2.16013053 -12.56830135 2.16013053 -14.79296875 4.76171875 Z M-8.23046875 2.38671875 C-8.23046875 4.69671875 -8.23046875 7.00671875 -8.23046875 9.38671875 C-5.59046875 9.38671875 -2.95046875 9.38671875 -0.23046875 9.38671875 C-2.567793 5.08981036 -2.567793 5.08981036 -6.48046875 2.51171875 C-7.34671875 2.44984375 -7.34671875 2.44984375 -8.23046875 2.38671875 Z M-21.23046875 5.38671875 C-22.25654215 6.70009271 -23.257742 8.0333598 -24.23046875 9.38671875 C-23.24046875 9.38671875 -22.25046875 9.38671875 -21.23046875 9.38671875 C-20.90046875 8.06671875 -20.57046875 6.74671875 -20.23046875 5.38671875 C-20.56046875 5.38671875 -20.89046875 5.38671875 -21.23046875 5.38671875 Z M1.76953125 5.38671875 C2.09953125 6.70671875 2.42953125 8.02671875 2.76953125 9.38671875 C3.75953125 9.05671875 4.74953125 8.72671875 5.76953125 8.38671875 C4.44953125 7.39671875 3.12953125 6.40671875 1.76953125 5.38671875 Z M-26.23046875 11.38671875 C-28.0882364 14.52170167 -28.43187351 16.76143307 -28.23046875 20.38671875 C-26.58046875 20.38671875 -24.93046875 20.38671875 -23.23046875 20.38671875 C-22.90046875 17.41671875 -22.57046875 14.44671875 -22.23046875 11.38671875 C-23.55046875 11.38671875 -24.87046875 11.38671875 -26.23046875 11.38671875 Z M-19.23046875 11.38671875 C-20.70879135 14.34336394 -20.29079658 17.12901612 -20.23046875 20.38671875 C-16.93046875 20.38671875 -13.63046875 20.38671875 -10.23046875 20.38671875 C-10.23046875 17.41671875 -10.23046875 14.44671875 -10.23046875 11.38671875 C-13.20046875 11.38671875 -16.17046875 11.38671875 -19.23046875 11.38671875 Z M3.76953125 11.38671875 C4.09953125 14.35671875 4.42953125 17.32671875 4.76953125 20.38671875 C6.41953125 20.38671875 8.06953125 20.38671875 9.76953125 20.38671875 C9.28468849 15.74084983 9.28468849 15.74084983 7.76953125 11.38671875 C6.44953125 11.38671875 5.12953125 11.38671875 3.76953125 11.38671875 Z M-28.23046875 22.38671875 C-27.74562599 27.03258767 -27.74562599 27.03258767 -26.23046875 31.38671875 C-24.91046875 31.05671875 -23.59046875 30.72671875 -22.23046875 30.38671875 C-22.56046875 27.74671875 -22.89046875 25.10671875 -23.23046875 22.38671875 C-24.88046875 22.38671875 -26.53046875 22.38671875 -28.23046875 22.38671875 Z M-20.23046875 22.38671875 C-20.49979396 27.03724747 -20.49979396 27.03724747 -19.23046875 31.38671875 C-16.26046875 31.38671875 -13.29046875 31.38671875 -10.23046875 31.38671875 C-10.23046875 28.41671875 -10.23046875 25.44671875 -10.23046875 22.38671875 C-13.53046875 22.38671875 -16.83046875 22.38671875 -20.23046875 22.38671875 Z M-24.23046875 33.38671875 C-22.91046875 34.70671875 -21.59046875 36.02671875 -20.23046875 37.38671875 C-20.56046875 36.06671875 -20.89046875 34.74671875 -21.23046875 33.38671875 C-22.22046875 33.38671875 -23.21046875 33.38671875 -24.23046875 33.38671875 Z M-18.23046875 33.38671875 C-15.8931445 37.68362714 -15.8931445 37.68362714 -11.98046875 40.26171875 C-11.11421875 40.32359375 -11.11421875 40.32359375 -10.23046875 40.38671875 C-10.23046875 38.07671875 -10.23046875 35.76671875 -10.23046875 33.38671875 C-12.87046875 33.38671875 -15.51046875 33.38671875 -18.23046875 33.38671875 Z " fill="#000000" transform="translate(33.23046875,2.61328125)"/>
<path d="M0 0 C4.26294987 1.06573747 5.11506888 1.79849142 8 4.875 C10.02047916 7.01386661 11.80171768 8.86712331 14.25 10.5078125 C14.8275 11.00023437 15.405 11.49265625 16 12 C16 13.32 16 14.64 16 16 C14.68 16 13.36 16 12 16 C12.33 18.31 12.66 20.62 13 23 C11.02 23.33 9.04 23.66 7 24 C6.01 22.68 5.02 21.36 4 20 C2.02 20.99 2.02 20.99 0 22 C0 14.74 0 7.48 0 0 Z M2 5 C2 8.63 2 12.26 2 16 C3.32 16 4.64 16 6 16 C7.75 18 7.75 18 9 20 C8.34414811 16.39007621 8.34414811 16.39007621 7 13 C8.32 12.67 9.64 12.34 11 12 C9.69013727 10.83037314 8.3770374 9.66437056 7.0625 8.5 C6.33160156 7.8503125 5.60070313 7.200625 4.84765625 6.53125 C3.2716245 4.8936499 3.2716245 4.8936499 2 5 Z " fill="#000000" transform="translate(33,25)"/>
</svg>
